<?xml version="1.0" encoding="UTF-8" standalone="no"?>
<!-- Created with Inkscape (http://www.inkscape.org/) -->

<svg
   xmlns:osb="http://www.openswatchbook.org/uri/2009/osb"
   xmlns:dc="http://purl.org/dc/elements/1.1/"
   xmlns:cc="http://creativecommons.org/ns#"
   xmlns:rdf="http://www.w3.org/1999/02/22-rdf-syntax-ns#"
   xmlns:svg="http://www.w3.org/2000/svg"
   xmlns="http://www.w3.org/2000/svg"
   xmlns:xlink="http://www.w3.org/1999/xlink"
   xmlns:sodipodi="http://sodipodi.sourceforge.net/DTD/sodipodi-0.dtd"
   xmlns:inkscape="http://www.inkscape.org/namespaces/inkscape"
   width="571.63104"
   height="530.59637"
   id="svg4585"
   version="1.1"
   inkscape:version="0.91 r13725"
   sodipodi:docname="logo.svg"
   inkscape:export-filename="C:\Users\Mylene\Desktop\Projet Open\mpaw\COM\Logos mpaw\logo1000x1000.png"
   inkscape:export-xdpi="300"
   inkscape:export-ydpi="300">
  <defs
     id="defs4587">
    <linearGradient
       inkscape:collect="always"
       id="linearGradient5076">
      <stop
         style="stop-color:#ff6600;stop-opacity:1;"
         offset="0"
         id="stop5078" />
      <stop
         style="stop-color:#ff6600;stop-opacity:0;"
         offset="1"
         id="stop5080" />
    </linearGradient>
    <inkscape:path-effect
       effect="spiro"
       id="path-effect3429"
       is_visible="true" />
    <pattern
       inkscape:collect="always"
       xlink:href="#pattern8816"
       id="pattern8827"
       patternTransform="matrix(0.43964398,0,0,0.50756591,-542.91756,-160.57405)" />
    <linearGradient
       id="linearGradient8731"
       osb:paint="solid">
      <stop
         style="stop-color:#ff6600;stop-opacity:1;"
         offset="0"
         id="stop8733" />
    </linearGradient>
    <linearGradient
       id="linearGradient8705"
       osb:paint="solid">
      <stop
         style="stop-color:#ff8000;stop-opacity:1;"
         offset="0"
         id="stop8707" />
    </linearGradient>
    <linearGradient
       inkscape:collect="always"
       id="linearGradient7253">
      <stop
         style="stop-color:#ff8000;stop-opacity:1;"
         offset="0"
         id="stop7255" />
      <stop
         style="stop-color:#ff8000;stop-opacity:0;"
         offset="1"
         id="stop7257" />
    </linearGradient>
    <radialGradient
       inkscape:collect="always"
       xlink:href="#linearGradient7253"
       id="radialGradient7259"
       cx="176"
       cy="307.36218"
       fx="176"
       fy="307.36218"
       r="15.00011"
       gradientTransform="translate(0,8.9136438e-5)"
       gradientUnits="userSpaceOnUse" />
    <pattern
       patternUnits="userSpaceOnUse"
       width="94.000001"
       height="94.502674"
       patternTransform="translate(584,221.85951)"
       id="pattern8776">
      <g
         id="g8766"
         transform="matrix(0.5026738,0,0,0.5026738,-243.79679,-36.374573)">
        <rect
           y="72.362183"
           x="578"
           height="94"
           width="94"
           id="rect8768"
           style="fill:#b3b3b3;fill-opacity:1;stroke:none" />
        <rect
           style="fill:#808080;fill-opacity:1;stroke:none"
           id="rect8770"
           width="94"
           height="94"
           x="485"
           y="72.362183" />
        <rect
           y="166.36218"
           x="485"
           height="94"
           width="94"
           id="rect8772"
           style="fill:#b3b3b3;fill-opacity:1;stroke:none" />
        <rect
           style="fill:#808080;fill-opacity:1;stroke:none"
           id="rect8774"
           width="94"
           height="94"
           x="578"
           y="166.36218" />
      </g>
    </pattern>
    <pattern
       patternUnits="userSpaceOnUse"
       width="94.502682"
       height="94.502682"
       patternTransform="translate(-322.66873,198.836)"
       id="pattern8816">
      <g
         transform="translate(504,-206.85951)"
         id="g8806">
        <rect
           y="206.85951"
           x="-456.74866"
           height="47.251339"
           width="47.251339"
           id="rect8808"
           style="fill:#b3b3b3;fill-opacity:1;stroke:none" />
        <rect
           style="fill:#808080;fill-opacity:1;stroke:none"
           id="rect8810"
           width="47.251339"
           height="47.251339"
           x="-504"
           y="206.85951" />
        <rect
           y="254.11086"
           x="-504"
           height="47.251339"
           width="47.251339"
           id="rect8812"
           style="fill:#b3b3b3;fill-opacity:1;stroke:none" />
        <rect
           style="fill:#808080;fill-opacity:1;stroke:none"
           id="rect8814"
           width="47.251339"
           height="47.251339"
           x="-456.74866"
           y="254.11086" />
      </g>
    </pattern>
    <radialGradient
       inkscape:collect="always"
       xlink:href="#linearGradient7253"
       id="radialGradient8858"
       gradientUnits="userSpaceOnUse"
       gradientTransform="translate(0,8.9136438e-5)"
       cx="176"
       cy="307.36218"
       fx="176"
       fy="307.36218"
       r="15.00011" />
    <radialGradient
       inkscape:collect="always"
       xlink:href="#linearGradient7253"
       id="radialGradient8897"
       gradientUnits="userSpaceOnUse"
       gradientTransform="translate(0,8.9136438e-5)"
       cx="176"
       cy="307.36218"
       fx="176"
       fy="307.36218"
       r="15.00011" />
    <radialGradient
       inkscape:collect="always"
       xlink:href="#linearGradient7253-4"
       id="radialGradient8897-2"
       gradientUnits="userSpaceOnUse"
       gradientTransform="translate(0,8.9136438e-5)"
       cx="176"
       cy="307.36218"
       fx="176"
       fy="307.36218"
       r="15.00011" />
    <linearGradient
       inkscape:collect="always"
       id="linearGradient7253-4">
      <stop
         style="stop-color:#ff8000;stop-opacity:1;"
         offset="0"
         id="stop7255-4" />
      <stop
         style="stop-color:#ff8000;stop-opacity:0;"
         offset="1"
         id="stop7257-9" />
    </linearGradient>
    <radialGradient
       inkscape:collect="always"
       xlink:href="#linearGradient7253-4"
       id="radialGradient9054"
       gradientUnits="userSpaceOnUse"
       gradientTransform="translate(0,8.9136438e-5)"
       cx="176"
       cy="307.36218"
       fx="176"
       fy="307.36218"
       r="15.00011" />
    <linearGradient
       inkscape:collect="always"
       xlink:href="#linearGradient5076"
       id="linearGradient5086"
       x1="227.06596"
       y1="366.94901"
       x2="267.77707"
       y2="366.94901"
       gradientUnits="userSpaceOnUse" />
  </defs>
  <sodipodi:namedview
     id="base"
     pagecolor="#ffffff"
     bordercolor="#000000"
     borderopacity="0"
     inkscape:pageopacity="0"
     inkscape:pageshadow="2"
     inkscape:zoom="0.41053452"
     inkscape:cx="483.07614"
     inkscape:cy="129.92885"
     inkscape:document-units="px"
     inkscape:current-layer="g8885"
     showgrid="false"
     inkscape:object-paths="true"
     inkscape:snap-nodes="false"
     showguides="false"
     inkscape:snap-global="false"
     inkscape:snap-bbox="true"
     inkscape:bbox-paths="true"
     inkscape:bbox-nodes="true"
     inkscape:window-width="1600"
     inkscape:window-height="845"
     inkscape:window-x="0"
     inkscape:window-y="27"
     inkscape:window-maximized="1"
     fit-margin-top="0"
     fit-margin-left="0"
     fit-margin-right="0"
     fit-margin-bottom="0"
     units="px"
     borderlayer="false"
     showborder="false">
    <sodipodi:guide
       position="-116.43855,-389.78077"
       orientation="0,744.09448"
       id="guide8746" />
    <sodipodi:guide
       position="627.65595,-389.78077"
       orientation="-1052.3622,0"
       id="guide8748" />
    <sodipodi:guide
       position="627.65595,662.58144"
       orientation="0,-744.09448"
       id="guide8750" />
    <sodipodi:guide
       position="-116.43855,662.58144"
       orientation="1052.3622,0"
       id="guide8752" />
  </sodipodi:namedview>
  <metadata
     id="metadata4590">
    <rdf:RDF>
      <cc:Work
         rdf:about="">
        <dc:format>image/svg+xml</dc:format>
        <dc:type
           rdf:resource="http://purl.org/dc/dcmitype/StillImage" />
        <dc:title></dc:title>
      </cc:Work>
    </rdf:RDF>
  </metadata>
  <g
     inkscape:groupmode="layer"
     id="layer4"
     inkscape:label="fond color"
     style="display:inline"
     transform="translate(-116.43855,-131.98502)">
    <flowRoot
       xml:space="preserve"
       id="flowRoot4215"
       style="font-style:normal;font-variant:normal;font-weight:bold;font-stretch:normal;font-size:24px;line-height:125%;font-family:Aharoni;-inkscape-font-specification:'Aharoni Bold';letter-spacing:0px;word-spacing:0px;fill:#000000;fill-opacity:1;stroke:none;stroke-width:1px;stroke-linecap:butt;stroke-linejoin:miter;stroke-opacity:1"
       transform="translate(38.79723,100.53684)"><flowRegion
         id="flowRegion4217"><rect
           id="rect4219"
           width="1021.1844"
           height="164.93849"
           x="-109.00283"
           y="609.09229" /></flowRegion><flowPara
         id="flowPara4221" /></flowRoot>  </g>
  <g
     inkscape:label="damier"
     inkscape:groupmode="layer"
     id="layer1"
     style="display:none"
     sodipodi:insensitive="true"
     transform="translate(-116.43855,-131.98502)">
    <rect
       style="fill:url(#pattern8827);stroke:none"
       width="745.0177"
       height="1052.723"
       x="2.89465"
       y="32.367825"
       id="rect8823" />
    <path
       sodipodi:type="arc"
       style="fill:none;stroke:none"
       id="path4597"
       sodipodi:cx="275.82431"
       sodipodi:cy="502.36218"
       sodipodi:rx="67.032837"
       sodipodi:ry="41.42857"
       d="m 208.81616,503.48634 a 67.032837,41.42857 0 0 1 18.89759,-29.97235 67.032837,41.42857 0 0 1 47.90276,-12.58018 l 0.2078,41.42837 z"
       sodipodi:start="3.1144546"
       sodipodi:end="4.709289" />
    <path
       sodipodi:type="arc"
       style="fill:#000000;fill-opacity:1;stroke:none"
       id="path4601"
       sodipodi:cx="205.71428"
       sodipodi:cy="660.93359"
       sodipodi:rx="8.5714283"
       sodipodi:ry="28.571428"
       d="m 197.14601,661.70887 a 8.5714283,28.571428 0 0 1 0.009,-2.2847 l 8.55946,1.50942 z"
       sodipodi:start="3.1144546"
       sodipodi:end="3.1944471" />
    <g
       id="g8800">
      <rect
         y="206.85951"
         x="-456.74866"
         height="47.251339"
         width="47.251339"
         id="rect8744"
         style="fill:#e6e6e6;fill-opacity:1;stroke:none" />
      <rect
         style="fill:#808080;fill-opacity:1;stroke:none"
         id="rect8754"
         width="47.251339"
         height="47.251339"
         x="-504"
         y="206.85951" />
      <rect
         y="254.11086"
         x="-504"
         height="47.251339"
         width="47.251339"
         id="rect8756"
         style="fill:#ececec;fill-opacity:1;stroke:none" />
      <rect
         style="fill:#808080;fill-opacity:1;stroke:none"
         id="rect8758"
         width="47.251339"
         height="47.251339"
         x="-456.74866"
         y="254.11086" />
    </g>
  </g>
  <g
     inkscape:groupmode="layer"
     id="layer2"
     inkscape:label="oiseau"
     style="display:inline"
     transform="translate(-116.43855,-131.98502)" />
  <g
     inkscape:groupmode="layer"
     id="layer3"
     inkscape:label="texte"
     style="display:inline"
     transform="translate(-116.43855,-131.98502)">
    <g
       id="g4262"
       transform="matrix(1.3400834,0,0,1.3400834,-82.796485,-133.16839)"
       inkscape:export-xdpi="300"
       inkscape:export-ydpi="300">
      <g
         id="g4219"
         transform="translate(-3.6353689,-21.812213)">
        <g
           inkscape:export-ydpi="300"
           inkscape:export-xdpi="300"
           style="display:inline"
           id="g8848"
           transform="matrix(0.72284446,0,0,0.72284446,84.05289,222.91367)">
          <g
             transform="matrix(2.9477524,0,0,2.9477524,78.88133,-427.05073)"
             id="g8864" />
          <g
             transform="matrix(2.9477524,0,0,2.9477524,-234.03547,-706.26879)"
             id="g8885">
            <g
               id="g4244">
              <g
                 id="g5498">
                <path
                   inkscape:connector-curvature="0"
                   id="path4593"
                   d="m 314.71393,490.74899 c -0.50486,-30.09355 14.16322,-55.15142 32.76207,-55.9683 0.26983,-0.0118 0.53976,-0.0177 0.80969,-0.0206 l 0.10444,54.50901 z"
                   style="display:inline;fill:none;stroke:none"
                   transform="matrix(0.33924152,0,0,0.33924152,79.394549,239.5957)" />
                <g
                   id="g8879">
                  <g
                     id="g8867">
                    <path
                       inkscape:connector-curvature="0"
                       id="path4603-5"
                       d="m 111.4512,301.17188 c -0.92058,-33.91357 25.82553,-62.15222 59.7391,-63.0728 33.91357,-0.92057 62.15222,25.82554 63.0728,59.73911 0.92057,33.91357 -25.82554,62.15222 -59.73911,63.0728 -33.14411,0.89968 -61.02128,-24.66549 -62.98732,-57.76346"
                       style="fill:#ffffff;fill-opacity:1;stroke:none"
                       transform="matrix(0.62056627,0,0,0.61242669,166.23068,115.93731)" />
                  </g>
                  <g
                     id="g8870">
                    <path
                       inkscape:connector-curvature="0"
                       id="path5373-2"
                       d="m 161.00552,307.7692 c -0.22479,-8.28122 6.30624,-15.1767 14.58746,-15.40149 8.28122,-0.2248 15.17671,6.30623 15.4015,14.58745 0.22479,8.28122 -6.30624,15.17671 -14.58746,15.4015 -8.09333,0.21969 -14.90054,-6.02297 -15.38063,-14.10503"
                       style="fill:#000000;fill-opacity:1;stroke:none"
                       transform="translate(97,-7.9999956)" />
                  </g>
                </g>
                <g
                   id="g8874">
                  <path
                     inkscape:connector-curvature="0"
                     id="path4603"
                     d="m 111.4512,301.17188 c -0.92058,-33.91357 25.82553,-62.15222 59.7391,-63.0728 33.91357,-0.92057 62.15222,25.82554 63.0728,59.73911 0.92057,33.91357 -25.82554,62.15222 -59.73911,63.0728 -33.14411,0.89968 -61.02128,-24.66549 -62.98732,-57.76346"
                     style="fill:#f9f9f9;fill-opacity:1;stroke:none;stroke-width:1;marker-start:none" />
                  <path
                     inkscape:connector-curvature="0"
                     id="path5373"
                     d="m 161.00552,307.7692 c -0.22479,-8.28122 6.30624,-15.1767 14.58746,-15.40149 8.28122,-0.2248 15.17671,6.30623 15.4015,14.58745 0.22479,8.28122 -6.30624,15.17671 -14.58746,15.4015 -8.09333,0.21969 -14.90054,-6.02297 -15.38063,-14.10503"
                     style="fill:#000000;fill-opacity:1;stroke:url(#radialGradient9054)"
                     transform="matrix(0.70358634,0,0,0.65032561,48.652535,101.1615)" />
                </g>
                <path
                   style="fill:#ff6600;fill-opacity:1;stroke:url(#linearGradient5086);stroke-width:1px;stroke-linecap:butt;stroke-linejoin:miter;stroke-opacity:1"
                   d="m 227.62788,331.67463 7.64121,-20.51064 11.26075,19.30413 c 7.97199,21.88254 12.78322,42.18469 16.48894,61.93409 7.79745,37.08088 2.6973,26.87059 1.60868,31.36921 -10.39535,-39.79476 -15.83663,-62.81346 -36.99958,-92.09679 z"
                   id="path8737"
                   inkscape:connector-curvature="0"
                   sodipodi:nodetypes="cccccc" />
              </g>
              <g
                 transform="matrix(0.35021304,0,0,0.35021304,56.378658,304.79842)"
                 style="font-style:normal;font-weight:normal;font-size:40px;line-height:125%;font-family:sans-serif;letter-spacing:0px;word-spacing:0px;fill:#f9f9f9;fill-opacity:1;stroke:none;stroke-width:1px;stroke-linecap:butt;stroke-linejoin:miter;stroke-opacity:1"
                 id="flowRoot4201">
                <path
                   d="m 222.73195,266.0358 c -1.92,-0.96 -3.6,-2.8 -3.6,-6.16 l 0,-35.6 c 0,-9.36 -5.2,-12.72 -10.16,-12.72 -1.52,0 -4.48,0.32 -6.48,3.28 -2.48,-2.96 -6,-3.28 -7.36,-3.28 -4.8,0 -9.92,3.36 -9.92,12.72 l 0,33.44 c 0,5.28 -1.12,7.2 -2.24,7.6 -1.12,0.4 -2.16,-0.08 -2.16,0.64 0,1.44 0.8,3.84 3.76,3.84 4.48,0 6.88,-3.84 6.88,-10.88 l 0,-35.44 c 0,-6.08 2.8,-6.08 3.84,-6.08 1.2,0 3.76,0 3.76,6.08 l 0,44.8 c 0,1.52 0.96,1.52 2,1.52 2,0 4.64,-1.12 4.64,-1.92 0,-0.16 -0.24,-0.4 -0.4,-0.4 l 0,-43.2 c 0,-6.88 2.64,-6.88 3.84,-6.88 1.04,0 3.76,0 3.76,6.08 l 0,37.04 c 0,6.32 2.64,9.2 5.2,9.28 2.72,0.08 5.92,-2.96 4.64,-3.76 z"
                   style="font-style:normal;font-variant:normal;font-weight:normal;font-stretch:normal;font-size:80px;font-family:'Grand Hotel';-inkscape-font-specification:'Grand Hotel';fill:#f9f9f9;fill-opacity:1"
                   id="path4263"
                   inkscape:connector-curvature="0" />
                <path
                   d="m 249.5982,264.5158 c -1.92,0 -2.72,-1.92 -2.72,-3.68 l 0,-13.2 c 0,-1.92 -1.68,-3.52 -4.32,-3.52 -1.12,0 -2.08,0.56 -2.08,1.36 0,0.56 0.32,1.04 0.32,2.56 l 0,12.32 c -0.88,2.24 -2.32,4.16 -4.48,4.16 -2.8,0 -4.56,-2.4 -4.56,-6.56 0,-11.52 7.12,-16.72 13.2,-16.72 0.8,0 1.6,0.16 2.32,0.16 0.8,0 1.04,-0.48 1.04,-1.84 0,-2.08 -1.52,-3.36 -3.68,-3.36 -9.76,0 -19.04,8.16 -19.04,21.52 0,6.8 3.28,12.08 9.52,12.08 3.04,0 5.28,-1.44 6.88,-3.28 1.2,1.92 3.36,3.28 6.16,3.28 6.88,0 10.08,-7.2 11.44,-12.48 0.08,-0.32 0.08,-0.48 0.08,-0.56 0,-1.52 -1.52,-3.28 -2.8,-3.28 -0.8,0 -1.6,0.72 -1.92,2.4 -0.72,3.52 -2.16,8.64 -5.36,8.64 z"
                   style="font-style:normal;font-variant:normal;font-weight:normal;font-stretch:normal;font-size:80px;font-family:'Grand Hotel';-inkscape-font-specification:'Grand Hotel';fill:#f9f9f9;fill-opacity:1"
                   id="path4265"
                   inkscape:connector-curvature="0" />
                <path
                   d="m 286.0957,267.4758 c 0,1.2 2.16,2.32 4,2.32 1.2,0 2.24,-0.48 2.24,-1.84 l 0,-10.56 c 11.76,-2.24 22.56,-12.4 22.56,-26.32 0,-11.36 -7.6,-19.52 -19.28,-19.52 -14.24,0 -24.08,9.76 -24.08,24.72 0,9.36 4.56,14.16 5.84,15.36 2.32,1.76 4.48,-3.52 4.48,-4.96 0,-0.8 -0.32,-1.36 -1.2,-1.12 -0.16,-0.24 -3.04,-2.72 -3.04,-9.76 0,-9.76 5.2,-18.24 18.08,-18.24 9.36,0 13.04,7.6 13.04,13.68 0,13.44 -10.96,19.52 -16.4,20.16 l 0,-26.16 c 0,-1.92 -1.84,-3.52 -4.48,-3.52 -1.12,0 -2.08,0.56 -2.08,1.36 0,0.56 0.32,1.04 0.32,2.56 l 0,41.84 z"
                   style="font-style:normal;font-variant:normal;font-weight:normal;font-stretch:normal;font-size:80px;font-family:'Grand Hotel';-inkscape-font-specification:'Grand Hotel';fill:#f9f9f9;fill-opacity:1"
                   id="path4267"
                   inkscape:connector-curvature="0" />
                <path
                   d="m 335.0457,244.2758 c 0,-4.8 -2.72,-8.08 -7.2,-8.08 -6.16,0 -12.24,7.6 -12.24,17.76 0,10 6.88,15.84 14.16,15.84 11.76,0 14.96,-9.68 15.52,-14.56 0.32,-2.8 -4.16,-4.4 -4.88,-0.8 -0.96,4.88 -3.52,10.08 -9.76,10.08 -4.16,0 -6.32,-2.24 -7.44,-4.96 7.76,-2.32 11.84,-9.36 11.84,-15.28 z m -12.88,9.44 c -0.16,-3.36 1.04,-12.16 4.96,-12.16 1.04,0 1.68,1.04 1.68,2.8 0,4.8 -2.56,8.96 -6.56,10.8 0,-0.48 -0.08,-0.96 -0.08,-1.44 z"
                   style="font-style:normal;font-variant:normal;font-weight:normal;font-stretch:normal;font-size:80px;font-family:'Grand Hotel';-inkscape-font-specification:'Grand Hotel';fill:#f9f9f9;fill-opacity:1"
                   id="path4269"
                   inkscape:connector-curvature="0" />
                <path
                   d="m 333.03945,229.9558 c -2.32,0 -0.88,5.36 1.68,5.36 0,0 2,0.16 5.52,0.16 l 0,25.44 c 0,6.32 3.04,8.88 7.36,8.88 6.88,0 10.08,-7.2 11.44,-12.48 0.08,-0.32 0.08,-0.48 0.08,-0.56 0,-1.52 -1.52,-3.28 -2.8,-3.28 -0.8,0 -1.6,0.72 -1.92,2.4 -0.72,3.52 -2.16,8.64 -5.36,8.64 -1.68,0 -2.72,-1.12 -2.72,-3.68 l 0,-25.36 c 4.24,0 8.96,0 15.36,-0.16 2.08,-0.08 2.8,-7.76 0.56,-5.36 -5.44,0.24 -11.04,0.32 -15.92,0.32 l 0,-14 c 0,-1.92 -1.68,-3.52 -4.32,-3.52 -1.12,0 -2.56,0.32 -2.56,0.88 0,0.56 0.8,0.72 0.8,3.04 l 0,13.52 c -4.32,-0.08 -7.2,-0.24 -7.2,-0.24 z"
                   style="font-style:normal;font-variant:normal;font-weight:normal;font-stretch:normal;font-size:80px;font-family:'Grand Hotel';-inkscape-font-specification:'Grand Hotel';fill:#f9f9f9;fill-opacity:1"
                   id="path4271"
                   inkscape:connector-curvature="0" />
                <path
                   d="m 359.0107,229.0758 c 2.8,0 4.88,-2.24 4.88,-4.88 0,-2.8 -2.08,-4.88 -4.88,-4.88 -2.64,0 -4.8,2.08 -4.8,4.88 0,2.64 2.16,4.88 4.8,4.88 z m 1.84,11.44 c 0,-1.92 -1.68,-3.52 -4.32,-3.52 -1.12,0 -2.08,0.56 -2.08,1.36 0,0.56 0.32,1.04 0.32,2.56 l 0,21.36 c 0,4.08 2.48,7.52 6.72,7.52 6.88,0 10,-7.2 11.44,-12.48 0.64,-2.56 -3.68,-6.32 -4.64,-1.44 -0.72,3.52 -2.16,8.64 -5.36,8.64 -2.08,0 -2.08,-2.96 -2.08,-3.68 l 0,-20.32 z"
                   style="font-style:normal;font-variant:normal;font-weight:normal;font-stretch:normal;font-size:80px;font-family:'Grand Hotel';-inkscape-font-specification:'Grand Hotel';fill:#f9f9f9;fill-opacity:1"
                   id="path4273"
                   inkscape:connector-curvature="0" />
                <path
                   d="m 361.3207,229.9558 c -2.32,0 -0.88,5.36 1.68,5.36 0,0 2,0.16 5.52,0.16 l 0,25.44 c 0,6.32 3.04,8.88 7.36,8.88 6.88,0 10.08,-7.2 11.44,-12.48 0.08,-0.32 0.08,-0.48 0.08,-0.56 0,-1.52 -1.52,-3.28 -2.8,-3.28 -0.8,0 -1.6,0.72 -1.92,2.4 -0.72,3.52 -2.16,8.64 -5.36,8.64 -1.68,0 -2.72,-1.12 -2.72,-3.68 l 0,-25.36 c 4.24,0 8.96,0 15.36,-0.16 2.08,-0.08 2.8,-7.76 0.56,-5.36 -5.44,0.24 -11.04,0.32 -15.92,0.32 l 0,-14 c 0,-1.92 -1.68,-3.52 -4.32,-3.52 -1.12,0 -2.56,0.32 -2.56,0.88 0,0.56 0.8,0.72 0.8,3.04 l 0,13.52 c -4.32,-0.08 -7.2,-0.24 -7.2,-0.24 z"
                   style="font-style:normal;font-variant:normal;font-weight:normal;font-stretch:normal;font-size:80px;font-family:'Grand Hotel';-inkscape-font-specification:'Grand Hotel';fill:#f9f9f9;fill-opacity:1"
                   id="path4275"
                   inkscape:connector-curvature="0" />
                <path
                   d="m 401.45195,244.2758 c 0,-4.8 -2.72,-8.08 -7.2,-8.08 -6.16,0 -12.24,7.6 -12.24,17.76 0,10 6.88,15.84 14.16,15.84 11.76,0 14.96,-9.68 15.52,-14.56 0.32,-2.8 -4.16,-4.4 -4.88,-0.8 -0.96,4.88 -3.52,10.08 -9.76,10.08 -4.16,0 -6.32,-2.24 -7.44,-4.96 7.76,-2.32 11.84,-9.36 11.84,-15.28 z m -12.88,9.44 c -0.16,-3.36 1.04,-12.16 4.96,-12.16 1.04,0 1.68,1.04 1.68,2.8 0,4.8 -2.56,8.96 -6.56,10.8 0,-0.48 -0.08,-0.96 -0.08,-1.44 z"
                   style="font-style:normal;font-variant:normal;font-weight:normal;font-stretch:normal;font-size:80px;font-family:'Grand Hotel';-inkscape-font-specification:'Grand Hotel';fill:#f9f9f9;fill-opacity:1"
                   id="path4277"
                   inkscape:connector-curvature="0" />
                <path
                   d="m 440.70195,236.7558 c 9.76,0 19.52,-6.64 19.52,-15.84 0,-5.68 -3.84,-10.16 -10.4,-10.16 -15.2,0 -25.68,18.88 -25.68,36.56 0,17.2 6.08,23.44 14.8,23.44 5.6,0 10.4,-4 12.8,-9.04 0.24,6.48 0.08,8.56 2.88,8.56 1.76,0 4.08,-0.88 4.08,-1.92 0,-0.16 -0.08,-0.32 -0.24,-0.56 -0.32,-2.56 -0.72,-7.04 -0.72,-17.52 0,-6.24 0.64,-10.96 1.04,-13.04 0.32,-1.52 -1.2,-2.08 -2.48,-2.08 -1.52,0 -3.12,0.56 -3.28,1.6 -1.6,12.56 -4,27.76 -13.36,27.76 -6.88,0 -9.12,-7.36 -9.12,-17.36 0,-12.56 6.48,-30.32 18.88,-30.32 3.04,0 4.48,2.24 4.48,4.4 0,6 -7.04,9.76 -12.8,9.76 -2.32,0 -2.48,-0.8 -3.04,-0.8 -0.56,0 -0.88,1.44 -0.88,2.56 0,2.64 1.6,4 3.52,4 z"
                   style="font-style:normal;font-variant:normal;font-weight:normal;font-stretch:normal;font-size:80px;font-family:'Grand Hotel';-inkscape-font-specification:'Grand Hotel';fill:#f9f9f9;fill-opacity:1"
                   id="path4279"
                   inkscape:connector-curvature="0" />
                <path
                   d="m 468.78945,291.3158 c 0,5.12 3.2,9.2 7.68,9.2 4.08,0 8.32,-2.96 8.32,-11.36 l 0,-13.84 c 4.32,-3.76 8.96,-8.48 11.68,-17.76 0.08,-0.32 0.08,-0.72 0.08,-0.8 0,-1.52 -1.52,-3.28 -2.8,-3.28 -0.8,0 -1.44,0.72 -1.92,2.4 -1.6,5.52 -4.16,9.52 -7.04,12.72 l 0,-21.76 c 0,-1.92 -1.68,-3.52 -4.32,-3.52 -1.12,0 -2.08,0.56 -2.08,1.36 0,0.56 0.32,1.04 0.32,2.56 l 0,9.04 c -0.56,3.2 -2.16,7.44 -5.36,7.44 -2.8,0 -4.56,-2.4 -4.56,-6.56 0,-11.52 7.12,-16.72 13.2,-16.72 0.8,0 1.6,0.16 2.32,0.16 0.8,0 1.04,-0.48 1.04,-1.84 0,-2.08 -1.52,-3.36 -3.68,-3.36 -9.76,0 -19.04,8.16 -19.04,21.52 0,6.8 3.28,12.08 9.52,12.08 2.8,0 4.96,-1.28 6.56,-2.88 l 0,8.4 c -5.28,4.64 -9.92,8.72 -9.92,16.8 z m 7.68,4.16 c -1.28,0 -2.08,-1.92 -2.08,-4.4 0,-4.8 1.76,-7.84 4.32,-10.48 l 0,8.56 c 0,1.52 0.32,6.32 -2.24,6.32 z"
                   style="font-style:normal;font-variant:normal;font-weight:normal;font-stretch:normal;font-size:80px;font-family:'Grand Hotel';-inkscape-font-specification:'Grand Hotel';fill:#f9f9f9;fill-opacity:1"
                   id="path4281"
                   inkscape:connector-curvature="0" />
                <path
                   d="m 510.51445,244.2758 c 0,-4.8 -2.72,-8.08 -7.2,-8.08 -6.16,0 -12.24,7.6 -12.24,17.76 0,10 6.88,15.84 14.16,15.84 11.76,0 14.96,-9.68 15.52,-14.56 0.32,-2.8 -4.16,-4.4 -4.88,-0.8 -0.96,4.88 -3.52,10.08 -9.76,10.08 -4.16,0 -6.32,-2.24 -7.44,-4.96 7.76,-2.32 11.84,-9.36 11.84,-15.28 z m -12.88,9.44 c -0.16,-3.36 1.04,-12.16 4.96,-12.16 1.04,0 1.68,1.04 1.68,2.8 0,4.8 -2.56,8.96 -6.56,10.8 0,-0.48 -0.08,-0.96 -0.08,-1.44 z"
                   style="font-style:normal;font-variant:normal;font-weight:normal;font-stretch:normal;font-size:80px;font-family:'Grand Hotel';-inkscape-font-specification:'Grand Hotel';fill:#f9f9f9;fill-opacity:1"
                   id="path4283"
                   inkscape:connector-curvature="0" />
                <path
                   d="m 515.7082,266.2758 c 0,2.96 2.24,3.52 3.84,3.52 2.32,0 2.24,-1.92 2.24,-3.44 l 0,-11.68 c 0.56,-6.32 5.52,-13.2 7.84,-13.2 1.52,0 1.68,2.08 1.68,4.56 l 0,16.24 c 0,4.08 2.48,7.52 6.72,7.52 6.88,0 10.08,-7.2 11.44,-12.48 0.08,-0.32 0.08,-0.48 0.08,-0.56 0,-1.52 -1.52,-3.28 -2.8,-3.28 -0.8,0 -1.6,0.72 -1.92,2.4 -0.72,3.52 -2.16,8.64 -5.36,8.64 -2.08,0 -2.08,-2.96 -2.08,-3.68 l 0,-16.56 c 0,-3.68 -1.28,-8.08 -6.64,-8.08 -3.92,0 -6.8,3.44 -8.96,7.92 l 0,-3.6 c 0,-1.92 -1.68,-3.52 -4.32,-3.52 -1.12,0 -2.08,0.56 -2.08,1.36 0,0.56 0.32,1.04 0.32,2.56 l 0,25.36 z"
                   style="font-style:normal;font-variant:normal;font-weight:normal;font-stretch:normal;font-size:80px;font-family:'Grand Hotel';-inkscape-font-specification:'Grand Hotel';fill:#f9f9f9;fill-opacity:1"
                   id="path4285"
                   inkscape:connector-curvature="0" />
                <path
                   d="m 557.41445,269.7958 c 11.76,0 15.28,-9.68 15.84,-14.56 0.32,-2.8 -4.16,-4.4 -4.88,-0.8 -0.96,4.88 -3.84,10.08 -10.08,10.08 -4.72,0 -8.16,-3.52 -8.16,-9.84 0,-7.2 2.8,-13.12 5.76,-13.12 2.72,0 2.88,2.96 3.28,4.32 -0.48,2.8 5.04,1.2 5.04,-1.84 0,-2.8 -2.08,-7.84 -7.6,-7.84 -7.6,0 -13.04,9.28 -13.04,18.48 0,9.84 6.72,15.12 13.84,15.12 z"
                   style="font-style:normal;font-variant:normal;font-weight:normal;font-stretch:normal;font-size:80px;font-family:'Grand Hotel';-inkscape-font-specification:'Grand Hotel';fill:#f9f9f9;fill-opacity:1"
                   id="path4287"
                   inkscape:connector-curvature="0" />
                <path
                   d="m 586.76445,244.2758 c 0,-4.8 -2.72,-8.08 -7.2,-8.08 -6.16,0 -12.24,7.6 -12.24,17.76 0,10 6.88,15.84 14.16,15.84 11.76,0 14.96,-9.68 15.52,-14.56 0.32,-2.8 -4.16,-4.4 -4.88,-0.8 -0.96,4.88 -3.52,10.08 -9.76,10.08 -4.16,0 -6.32,-2.24 -7.44,-4.96 7.76,-2.32 11.84,-9.36 11.84,-15.28 z m -12.88,9.44 c -0.16,-3.36 1.04,-12.16 4.96,-12.16 1.04,0 1.68,1.04 1.68,2.8 0,4.8 -2.56,8.96 -6.56,10.8 0,-0.48 -0.08,-0.96 -0.08,-1.44 z"
                   style="font-style:normal;font-variant:normal;font-weight:normal;font-stretch:normal;font-size:80px;font-family:'Grand Hotel';-inkscape-font-specification:'Grand Hotel';fill:#f9f9f9;fill-opacity:1"
                   id="path4289"
                   inkscape:connector-curvature="0" />
                <path
                   d="m 645.69445,220.6758 c 0,-4 0.72,-5.52 2.8,-6.16 0.24,-0.08 0.32,-0.16 0.32,-0.32 0,-0.72 -2.88,-2.64 -5.2,-2.64 -1.92,0 -4.16,1.84 -4.16,8.32 l 0,38 c 0,6.08 -2.8,6.08 -3.84,6.08 -1.2,0 -3.76,0 -3.76,-6.08 l 0,-40.4 c 0,-1.92 -1.84,-3.52 -4.48,-3.52 -1.12,0 -2.08,0.56 -2.08,1.36 0,0.56 0.32,1.04 0.32,2.56 l 0,39.2 c 0,6.88 -2.64,6.88 -3.84,6.88 -1.04,0 -3.76,0 -3.76,-6.08 l 0,-38 c 0,-6.48 -2.24,-8.32 -4.24,-8.32 -2.24,0 -5.12,1.92 -5.12,2.64 0,0.16 0.08,0.24 0.32,0.32 1.92,0.64 2.8,2.16 2.8,6.16 l 0,36.4 c 0,9.36 4.64,12.72 9.6,12.72 1.44,0 4.64,-0.32 6.88,-3.36 2.48,3.04 6.08,3.36 7.52,3.36 4.8,0 9.92,-3.36 9.92,-12.72 l 0,-36.4 z"
                   style="font-style:normal;font-variant:normal;font-weight:normal;font-stretch:normal;font-size:80px;font-family:'Grand Hotel';-inkscape-font-specification:'Grand Hotel';fill:#f9f9f9;fill-opacity:1"
                   id="path4291"
                   inkscape:connector-curvature="0" />
                <path
                   d="m 671.9207,244.2758 c 0,-4.8 -2.72,-8.08 -7.2,-8.08 -6.16,0 -12.24,7.6 -12.24,17.76 0,10 6.88,15.84 14.16,15.84 11.76,0 14.96,-9.68 15.52,-14.56 0.32,-2.8 -4.16,-4.4 -4.88,-0.8 -0.96,4.88 -3.52,10.08 -9.76,10.08 -4.16,0 -6.32,-2.24 -7.44,-4.96 7.76,-2.32 11.84,-9.36 11.84,-15.28 z m -12.88,9.44 c -0.16,-3.36 1.04,-12.16 4.96,-12.16 1.04,0 1.68,1.04 1.68,2.8 0,4.8 -2.56,8.96 -6.56,10.8 0,-0.48 -0.08,-0.96 -0.08,-1.44 z"
                   style="font-style:normal;font-variant:normal;font-weight:normal;font-stretch:normal;font-size:80px;font-family:'Grand Hotel';-inkscape-font-specification:'Grand Hotel';fill:#f9f9f9;fill-opacity:1"
                   id="path4293"
                   inkscape:connector-curvature="0" />
                <path
                   d="m 685.83445,247.1558 c 0,5.68 2.8,11.28 7.36,14.56 -0.96,1.68 -2.32,2.8 -4.32,2.8 -3.84,0 -5.68,-3.92 -5.68,-9.2 l 0,-37.44 c 0,-1.92 -1.68,-3.52 -4.32,-3.52 -1.12,0 -2.56,0.32 -2.56,0.88 0,0.56 0.8,0.72 0.8,3.04 l 0,38.16 c 0,7.84 3.92,13.36 11.28,13.36 4.64,0 7.76,-2.32 9.76,-5.76 1.28,0.4 2.64,0.56 4.08,0.56 5.44,0 8.72,-3.6 9.68,-7.92 1.04,-4.48 -4.24,-4.16 -4.56,-2.32 -0.48,3.12 -2.32,5.76 -5.76,5.76 -0.56,0 -1.12,0 -1.68,-0.16 0.8,-2.8 1.2,-6 1.2,-9.12 0,-8.96 -4.24,-13.04 -8.48,-13.04 -3.76,0 -6.8,2.88 -6.8,9.36 z m 4.96,-0.32 c 0,-2.24 0.4,-3.76 1.44,-3.76 1.44,0 2.8,3.04 2.8,8.4 0,1.52 -0.08,3.44 -0.4,5.28 -2.32,-2.48 -3.84,-6.08 -3.84,-9.92 z"
                   style="font-style:normal;font-variant:normal;font-weight:normal;font-stretch:normal;font-size:80px;font-family:'Grand Hotel';-inkscape-font-specification:'Grand Hotel';fill:#f9f9f9;fill-opacity:1"
                   id="path4295"
                   inkscape:connector-curvature="0" />
              </g>
            </g>
            <flowRoot
               style="font-style:normal;font-weight:normal;font-size:40px;line-height:125%;font-family:sans-serif;letter-spacing:0px;word-spacing:0px;fill:#000000;fill-opacity:1;stroke:none;stroke-width:1px;stroke-linecap:butt;stroke-linejoin:miter;stroke-opacity:1"
               id="flowRoot4211"
               xml:space="preserve"><flowRegion
                 id="flowRegion4213"><rect
                   y="290.45673"
                   x="465.2471"
                   height="63.332069"
                   width="270.37921"
                   id="rect4215" /></flowRegion><flowPara
                 id="flowPara4217" /></flowRoot>          </g>
        </g>
      </g>
    </g>
  </g>
  <g
     inkscape:groupmode="layer"
     id="layer5"
     inkscape:label="message"
     transform="translate(-77.641317,-31.448178)" />
</svg>
